<svg xmlns="http://www.w3.org/2000/svg" viewBox="0 0 36 34" width="36" height="34">
	<style>
		tspan { white-space:pre }
		.shp0 { fill: #ffffff } 
	</style>
	<g id="Списком активная кнопка">
		<path id="Фигура 56 копия 4" class="shp0" d="M14.19 10.86L30.72 10.86L30.72 13.34L14.19 13.34L14.19 10.86Z" />
		<path id="Фигура 56 копия 16" class="shp0" d="M14.19 15.82L30.72 15.82L30.72 18.3L14.19 18.3L14.19 15.82Z" />
		<path id="Фигура 56 копия 16" class="shp0" d="M14.19 21.6L30.72 21.6L30.72 24.08L14.19 24.08L14.19 21.6Z" />
		<path id="Фигура 56 копия 16" class="shp0" d="M6.75 10.86L10.89 10.86L10.89 13.34L6.75 13.34L6.75 10.86Z" />
		<path id="Фигура 56 копия 16" class="shp0" d="M6.75 15.82L10.89 15.82L10.89 18.3L6.75 18.3L6.75 15.82Z" />
		<path id="Фигура 56 копия 16" class="shp0" d="M6.75 21.6L10.89 21.6L10.89 24.08L6.75 24.08L6.75 21.6Z" />
	</g>
</svg>